<?xml version="1.0" standalone="no"?>
<!DOCTYPE svg PUBLIC "-//W3C//DTD SVG 20010904//EN"
 "http://www.w3.org/TR/2001/REC-SVG-20010904/DTD/svg10.dtd">
<svg version="1.0" xmlns="http://www.w3.org/2000/svg"
 width="256.000000pt" height="256.000000pt" viewBox="0 0 256.000000 256.000000"
 preserveAspectRatio="xMidYMid meet">
<metadata>
Created by potrace 1.14, written by Peter Selinger 2001-2017
</metadata>
<g transform="translate(0.000000,256.000000) scale(0.100000,-0.100000)"
fill="#000000" stroke="none">
<path d="M0 1280 l0 -1280 1280 0 1280 0 0 1280 0 1280 -1280 0 -1280 0 0
-1280z m1747 60 c183 -498 335 -913 339 -923 5 -16 -3 -17 -112 -15 l-118 3
-90 257 -91 258 -376 0 -375 0 -73 -207 c-41 -115 -82 -232 -93 -261 l-19 -52
-115 0 c-63 0 -114 3 -114 7 0 4 152 420 337 925 l337 919 115 -3 115 -3 333
-905z"/>
<path d="M1147 1547 c-81 -227 -147 -416 -147 -420 0 -4 135 -7 300 -7 165 0
300 2 300 4 0 13 -291 821 -298 828 -5 5 -75 -177 -155 -405z"/>
</g>
</svg>
